<svg width="75" height="84" viewBox="0 0 75 84" fill="none" xmlns="http://www.w3.org/2000/svg">
<path d="M63.1913 52.5145L21.4569 58.274C18.4188 58.6929 15.5391 57.0766 15.0245 54.6653L5.68277 10.9516C5.16819 8.54031 7.21335 6.24445 10.2481 5.82552L51.9826 0.0660923C55.0206 -0.352836 57.9003 1.2635 58.4149 3.67481L67.7567 47.3885C68.2713 49.7998 66.2261 52.0956 63.1913 52.5145Z" fill="#96BCE2"/>
<path d="M0 16.1206C0 10.4635 4.628 5.83545 10.2852 5.83545H23.3445C29.0017 5.83545 38.162 6.77557 43.7005 7.9202C43.7005 7.9202 47.3191 8.66898 56.1462 14.3394C64.9701 20.0097 69.387 30.0607 69.387 44.4923C69.387 58.9238 65.0691 68.9748 56.4365 74.6452C47.804 80.3156 43.7169 81.1336 43.7169 81.1336C38.1686 82.242 29.0017 83.1491 23.3445 83.1491H10.2852C4.628 83.1491 0 78.5211 0 72.8639V16.1239V16.1206Z" fill="#1E69D6"/>
<path d="M45.5149 36.5923H70.2052C72.478 36.5923 74.3253 38.4395 74.3253 40.7123V50.064C74.3253 52.3367 72.478 54.184 70.2052 54.184H45.5149C40.6626 54.184 36.7207 50.2421 36.7207 45.3898C36.7207 40.5375 40.6626 36.5956 45.5149 36.5956V36.5923Z" fill="#96BCE2"/>
<path d="M48.4865 50.7596C51.3321 50.7596 53.6389 48.4527 53.6389 45.6071C53.6389 42.7614 51.3321 40.4546 48.4865 40.4546C45.6408 40.4546 43.334 42.7614 43.334 45.6071C43.334 48.4527 45.6408 50.7596 48.4865 50.7596Z" fill="#1F6CC9"/>
</svg>
