<svg width="43" height="43" viewBox="0 0 43 43" fill="none" xmlns="http://www.w3.org/2000/svg">
<circle cx="21.0938" cy="21.0938" r="21.0938" fill="#115BCA"/>
<path d="M21.9375 15.3153L21.8097 24.7244H20.3267L20.1989 15.3153H21.9375ZM21.0682 28.5085C20.7528 28.5085 20.4822 28.3956 20.2564 28.1697C20.0305 27.9439 19.9176 27.6733 19.9176 27.358C19.9176 27.0426 20.0305 26.772 20.2564 26.5462C20.4822 26.3203 20.7528 26.2074 21.0682 26.2074C21.3835 26.2074 21.6541 26.3203 21.88 26.5462C22.1058 26.772 22.2188 27.0426 22.2188 27.358C22.2188 27.5668 22.1655 27.7585 22.0589 27.9332C21.9567 28.108 21.8182 28.2486 21.6435 28.3551C21.473 28.4574 21.2813 28.5085 21.0682 28.5085Z" fill="#F4F4F4"/>
</svg>
